<?xml version="1.0" standalone="no"?>
<!DOCTYPE svg PUBLIC "-//W3C//DTD SVG 20010904//EN"
 "http://www.w3.org/TR/2001/REC-SVG-20010904/DTD/svg10.dtd">
<svg version="1.0" xmlns="http://www.w3.org/2000/svg"
 width="260.000000pt" height="260.000000pt" viewBox="0 0 260.000000 260.000000"
 preserveAspectRatio="xMidYMid meet">
<metadata>
Created by potrace 1.14, written by Peter Selinger 2001-2017
</metadata>
<g transform="translate(0.000000,260.000000) scale(0.100000,-0.100000)"
fill="#000000" stroke="none">
<path d="M1973 1705 c-13 -10 -17 -32 -18 -105 -2 -115 -1 -114 -130 -110 -73
2 -86 -12 -90 -94 -3 -96 9 -109 105 -107 108 2 117 -7 114 -108 -3 -110 7
-122 100 -122 38 0 74 5 80 11 6 6 12 51 13 102 1 51 6 95 13 102 6 6 48 11
96 12 50 1 90 6 97 13 6 6 12 44 14 84 2 99 -6 107 -112 107 -105 0 -110 6
-107 107 4 107 -7 121 -93 120 -36 0 -73 -6 -82 -12z"/>
<path d="M741 1669 c-55 -7 -71 -28 -71 -94 0 -67 18 -84 91 -86 102 -3 114 1
124 44 6 21 4 27 -9 27 -9 0 -16 -7 -16 -15 0 -22 -29 -32 -88 -31 -61 2 -72
12 -72 73 0 52 14 61 89 58 43 -1 57 -6 71 -25 23 -30 38 -8 16 24 -17 27 -62
35 -135 25z"/>
<path d="M1011 1670 c-65 -7 -81 -25 -81 -91 0 -70 20 -88 100 -92 72 -4 115
6 124 30 11 27 -5 34 -31 13 -50 -39 -163 -22 -163 26 0 11 20 14 101 14 l100
0 -6 37 c-3 21 -9 41 -14 46 -15 15 -74 23 -130 17z m95 -29 c7 0 14 -10 17
-21 5 -19 0 -20 -79 -20 -46 0 -84 3 -84 8 0 12 14 29 28 33 12 4 86 4 118 0z"/>
<path d="M1265 1669 c-49 -8 -65 -31 -65 -90 0 -69 21 -89 95 -93 33 -1 72 2
87 7 27 9 45 38 33 57 -9 15 -25 12 -25 -4 0 -21 -15 -27 -68 -32 -70 -7 -92
9 -92 67 0 26 4 50 9 54 6 3 35 7 67 9 45 3 61 -1 75 -15 34 -34 51 -21 24 18
-16 23 -75 32 -140 22z"/>
<path d="M1520 1669 c-44 -9 -60 -32 -60 -85 0 -56 7 -72 39 -87 50 -24 173
-11 185 19 10 27 -5 37 -26 17 -26 -24 -144 -26 -158 -3 -23 36 -13 40 90 40
l100 0 0 30 c0 39 -31 70 -72 71 -18 0 -40 2 -48 3 -8 2 -31 -1 -50 -5z m131
-40 c16 -26 9 -29 -76 -29 -85 0 -98 6 -71 33 19 19 134 16 147 -4z"/>
<path d="M219 1403 c-1 -5 -2 -83 -3 -175 -1 -168 -1 -168 21 -168 22 0 23 2
25 149 l3 149 103 -149 c71 -103 109 -149 122 -149 13 0 51 45 121 145 56 81
103 144 106 142 2 -3 4 -69 5 -146 0 -139 1 -142 22 -139 20 3 21 7 22 176 l0
173 -35 -3 c-34 -3 -41 -11 -129 -138 -51 -74 -98 -140 -105 -147 -9 -9 -19
-1 -47 40 -145 216 -171 247 -201 247 -16 0 -30 -3 -30 -7z"/>
<path d="M850 1235 l0 -175 33 -1 c97 -2 311 2 315 6 2 2 2 11 -2 20 -5 13
-19 16 -63 15 -32 -1 -99 -1 -148 -1 l-90 1 0 58 0 57 145 5 c120 4 145 8 145
20 0 12 -25 16 -145 20 l-145 5 0 50 0 50 153 3 c144 2 152 4 152 22 0 19 -7
20 -175 20 l-175 0 0 -175z"/>
<path d="M1260 1235 l0 -175 28 -1 c83 -3 290 0 317 5 18 4 43 18 56 32 21 22
24 36 27 127 3 89 1 106 -17 135 -12 18 -33 37 -47 42 -14 6 -102 10 -195 10
l-169 0 0 -175z m360 115 c17 -17 20 -33 20 -115 0 -132 -3 -135 -157 -136
-65 0 -130 -2 -145 -3 -22 -1 -28 3 -29 19 -4 62 -4 232 -1 243 3 9 42 12 148
12 131 0 146 -2 164 -20z"/>
<path d="M960 1007 c-14 -12 -26 -31 -26 -42 -1 -11 -9 -37 -18 -57 -9 -21
-12 -38 -7 -38 5 0 18 23 30 51 12 27 28 52 36 55 7 3 11 12 8 20 -3 9 1 14
12 14 9 0 13 5 10 10 -9 14 -17 12 -45 -13z"/>
<path d="M1479 1006 c-9 -19 -15 -23 -25 -15 -18 15 -50 -4 -70 -42 -21 -41
-15 -73 14 -77 29 -4 54 26 82 97 21 55 20 85 -1 37z m-29 -50 c0 -24 -34 -76
-51 -76 -15 0 -10 40 8 71 21 35 43 38 43 5z"/>
<path d="M840 973 c-54 -49 -47 -121 10 -102 38 14 68 90 44 114 -20 19 -18
20 -54 -12z m42 -29 c-6 -53 -62 -90 -62 -40 0 28 37 79 54 73 6 -2 10 -17 8
-33z"/>
<path d="M1057 982 c-15 -16 -15 -21 -1 -47 8 -16 12 -35 10 -42 -7 -17 -33
-17 -39 0 -2 6 -8 9 -12 4 -10 -9 9 -30 30 -33 9 -1 23 8 31 21 14 21 14 26
-1 49 -9 14 -14 30 -10 36 10 16 35 12 35 -7 0 -15 2 -16 10 -3 7 11 5 19 -7
28 -22 16 -27 15 -46 -6z"/>
<path d="M1247 955 c-16 -25 -31 -45 -33 -45 -3 0 -2 18 1 40 8 52 -7 52 -40
0 -32 -50 -32 -64 0 -25 l25 30 -6 -42 c-3 -25 -2 -43 4 -43 13 0 85 106 81
119 -2 6 -17 -9 -32 -34z"/>
<path d="M1323 989 c-26 -9 -65 -81 -57 -103 9 -23 35 -28 61 -10 14 8 22 18
19 21 -3 3 -12 0 -21 -7 -17 -14 -49 -6 -43 12 2 6 12 12 22 14 29 4 66 34 66
53 0 23 -18 31 -47 20z m32 -19 c7 -11 -40 -43 -55 -38 -6 2 -2 13 10 26 22
24 35 27 45 12z"/>
<path d="M1520 973 c-40 -37 -52 -97 -21 -106 13 -3 30 2 44 14 12 10 17 18
12 19 -6 0 -16 -5 -22 -11 -7 -7 -19 -9 -28 -5 -24 9 -3 33 36 41 36 8 56 40
38 61 -16 20 -24 18 -59 -13z m50 -6 c0 -15 -49 -42 -58 -32 -8 7 29 45 45 45
7 0 13 -6 13 -13z"/>
<path d="M1636 987 c-21 -15 -69 -117 -55 -117 6 0 21 25 34 55 14 32 31 55
40 55 19 0 19 -23 -1 -61 -8 -17 -13 -36 -11 -42 5 -12 46 68 47 90 0 21 -35
34 -54 20z"/>
<path d="M1130 968 c0 -13 -3 -40 -7 -62 -5 -30 -3 -38 7 -34 15 5 23 118 8
118 -4 0 -8 -10 -8 -22z"/>
</g>
</svg>
